<svg width="2325" height="218" viewBox="0 0 2325 218" fill="none" xmlns="http://www.w3.org/2000/svg">
<g clip-path="url(#clip0_1:140)">
<rect x="2325" y="168.378" width="2325" height="168.378" transform="rotate(-180 2325 168.378)" fill="#2690A8"/>
<path fill-rule="evenodd" clip-rule="evenodd" d="M2325 167.622L2325 206.184C2300.87 196.448 2273.61 197.292 2250.04 208.743C2224.55 221.122 2194.79 221.122 2169.31 208.743C2143.82 196.364 2114.03 196.381 2088.54 208.76C2063.1 221.117 2033.25 221.078 2007.8 208.721C1982.43 196.396 1952.68 196.381 1927.34 208.777C1902.08 221.134 1872.55 221.217 1847.22 209.002L1846.3 208.56C1820.86 196.292 1791.02 196.425 1765.62 208.764C1740.29 221.067 1710.52 221.117 1685.22 208.743C1659.93 196.368 1630.15 196.418 1604.83 208.721C1579.42 221.06 1549.24 221.028 1523.8 208.76C1498.32 196.47 1468.23 196.364 1442.78 208.725C1417.3 221.104 1387.5 221.121 1362.02 208.743C1336.53 196.364 1306.77 196.364 1281.29 208.743C1255.8 221.121 1226.04 221.121 1200.56 208.743C1175.07 196.364 1145.31 196.364 1119.83 208.743C1094.34 221.121 1064.55 221.104 1039.06 208.725C1013.62 196.368 983.801 196.39 958.361 208.747C932.942 221.094 903.172 221.091 877.788 208.673C852.565 196.334 823.082 196.21 797.756 208.338L795.836 209.258C770.666 221.311 741.356 221.147 716.323 208.812C691.131 196.398 661.347 196.446 636.085 208.716C610.727 221.033 580.479 221.024 555.087 208.778C529.602 196.488 499.481 196.364 474.031 208.725C448.545 221.104 418.716 221.104 393.23 208.725C367.79 196.368 337.933 196.407 312.492 208.764C287.118 221.089 257.365 221.104 232.025 208.708C206.766 196.351 177.234 196.268 151.906 208.483L151.062 208.89C125.577 221.18 95.7991 221.104 70.3494 208.742C48.2754 198.021 22.9377 196.576 1.20024e-06 204.453L4.56727e-06 165.938C22.9629 158.263 48.2046 159.668 70.3494 170.108C95.8733 182.14 125.502 182.215 151.059 170.252L151.911 169.853C177.31 157.964 206.692 158.045 232.025 170.074C257.44 182.141 287.043 182.126 312.491 170.13C338.006 158.101 367.715 158.062 393.23 170.091C418.791 182.141 448.471 182.141 474.031 170.091C499.555 158.058 529.53 158.179 555.087 170.142C580.551 182.062 610.656 182.07 636.088 170.081C661.421 158.138 691.056 158.091 716.323 170.175C741.43 182.182 770.588 182.343 795.825 170.613L797.764 169.712C823.159 157.909 852.491 158.029 877.788 170.041C903.247 182.129 932.867 182.131 958.36 170.113C983.875 158.085 1013.55 158.062 1039.06 170.091C1064.62 182.141 1094.27 182.158 1119.83 170.108C1145.39 158.058 1175 158.058 1200.56 170.108C1226.12 182.158 1255.73 182.158 1281.29 170.108C1306.85 158.058 1336.46 158.058 1362.02 170.108C1387.58 182.158 1417.22 182.141 1442.78 170.091C1468.31 158.058 1498.24 158.162 1523.8 170.125C1549.31 182.066 1579.35 182.097 1604.83 170.086C1630.23 158.111 1659.85 158.062 1685.22 170.108C1710.59 182.154 1740.21 182.105 1765.62 170.13C1791.09 158.118 1820.79 157.988 1846.3 169.93L1847.22 170.362C1872.62 182.251 1902 182.17 1927.34 170.142C1952.75 158.074 1982.36 158.089 2007.8 170.086C2033.32 182.115 2063.03 182.153 2088.54 170.125C2114.1 158.075 2143.75 158.058 2169.31 170.108C2194.87 182.158 2224.48 182.158 2250.04 170.108C2273.69 158.959 2300.83 158.14 2325 167.622Z" fill="#F7F7FF"/>
<path fill-rule="evenodd" clip-rule="evenodd" d="M2325 129.564L2325 168.126C2300.87 158.39 2273.61 159.234 2250.04 170.685C2224.55 183.064 2194.79 183.064 2169.31 170.685C2143.82 158.306 2114.03 158.323 2088.54 170.702C2063.1 183.059 2033.25 183.019 2007.8 170.663C1982.43 158.338 1952.68 158.323 1927.34 170.719C1902.08 183.076 1872.55 183.159 1847.22 170.944L1846.3 170.502C1820.86 158.234 1791.02 158.367 1765.62 170.706C1740.29 183.009 1710.52 183.059 1685.22 170.685C1659.93 158.31 1630.15 158.36 1604.83 170.663C1579.42 183.002 1549.24 182.97 1523.8 170.702C1498.32 158.412 1468.23 158.306 1442.78 170.667C1417.3 183.046 1387.5 183.063 1362.02 170.684C1336.53 158.306 1306.77 158.306 1281.29 170.684C1255.8 183.063 1226.04 183.063 1200.56 170.684C1175.07 158.306 1145.31 158.306 1119.83 170.684C1094.34 183.063 1064.55 183.046 1039.06 170.667C1013.62 158.31 983.801 158.332 958.361 170.689C932.942 183.036 903.172 183.033 877.788 170.615C852.565 158.276 823.082 158.152 797.756 170.28L795.836 171.2C770.666 183.253 741.356 183.089 716.323 170.753C691.131 158.34 661.347 158.388 636.085 170.658C610.727 182.975 580.479 182.966 555.087 170.72C529.602 158.43 499.481 158.306 474.031 170.667C448.545 183.046 418.716 183.046 393.23 170.667C367.79 158.31 337.933 158.349 312.492 170.706C287.118 183.031 257.365 183.046 232.025 170.65C206.766 158.293 177.234 158.21 151.906 170.425L151.062 170.832C125.577 183.122 95.7991 183.046 70.3494 170.684C48.2754 159.963 22.9377 158.517 5.01494e-06 166.395L8.38197e-06 127.88C22.9629 120.205 48.2046 121.61 70.3494 132.05C95.8733 144.082 125.502 144.157 151.059 132.194L151.911 131.795C177.31 119.906 206.692 119.987 232.025 132.016C257.44 144.083 287.043 144.068 312.491 132.072C338.006 120.043 367.715 120.004 393.23 132.033C418.791 144.083 448.471 144.083 474.031 132.033C499.555 120 529.53 120.121 555.087 132.084C580.551 144.004 610.656 144.012 636.088 132.023C661.421 120.08 691.056 120.033 716.323 132.117C741.43 144.124 770.588 144.285 795.825 132.555L797.764 131.654C823.159 119.851 852.491 119.971 877.788 131.983C903.247 144.071 932.867 144.073 958.36 132.055C983.875 120.026 1013.55 120.004 1039.06 132.033C1064.62 144.083 1094.27 144.1 1119.83 132.05C1145.39 120 1175 120 1200.56 132.05C1226.12 144.1 1255.73 144.1 1281.29 132.05C1306.85 120 1336.46 120 1362.02 132.05C1387.58 144.1 1417.22 144.083 1442.78 132.033C1468.31 120 1498.24 120.104 1523.8 132.067C1549.31 144.008 1579.35 144.039 1604.83 132.028C1630.23 120.053 1659.85 120.004 1685.22 132.05C1710.59 144.096 1740.21 144.047 1765.62 132.072C1791.09 120.06 1820.79 119.93 1846.3 131.872L1847.22 132.304C1872.62 144.193 1902 144.112 1927.34 132.084C1952.75 120.016 1982.36 120.031 2007.8 132.028C2033.32 144.057 2063.03 144.095 2088.54 132.067C2114.1 120.017 2143.75 120 2169.31 132.05C2194.87 144.1 2224.48 144.1 2250.04 132.05C2273.69 120.901 2300.83 120.082 2325 129.564Z" fill="#40B3DB"/>
<path fill-rule="evenodd" clip-rule="evenodd" d="M2325 91.5063L2325 130.068C2300.87 120.332 2273.61 121.176 2250.04 132.627C2224.55 145.005 2194.79 145.005 2169.31 132.627C2143.82 120.248 2114.03 120.265 2088.54 132.644C2063.1 145.001 2033.25 144.961 2007.8 132.605C1982.43 120.28 1952.68 120.265 1927.34 132.661C1902.08 145.018 1872.55 145.101 1847.22 132.886L1846.3 132.444C1820.86 120.176 1791.02 120.309 1765.62 132.648C1740.29 144.951 1710.52 145.001 1685.22 132.626C1659.93 120.252 1630.15 120.302 1604.83 132.605C1579.42 144.944 1549.24 144.912 1523.8 132.644C1498.32 120.354 1468.23 120.248 1442.78 132.609C1417.3 144.988 1387.5 145.005 1362.02 132.626C1336.53 120.247 1306.77 120.247 1281.29 132.626C1255.8 145.005 1226.04 145.005 1200.56 132.626C1175.07 120.247 1145.31 120.247 1119.83 132.626C1094.34 145.005 1064.55 144.988 1039.06 132.609C1013.62 120.252 983.801 120.274 958.361 132.631C932.942 144.977 903.172 144.975 877.788 132.557C852.565 120.218 823.082 120.094 797.756 132.222L795.836 133.142C770.666 145.195 741.356 145.031 716.323 132.695C691.131 120.282 661.347 120.33 636.085 132.6C610.727 144.917 580.479 144.908 555.087 132.662C529.602 120.372 499.481 120.248 474.031 132.609C448.545 144.988 418.716 144.988 393.23 132.609C367.79 120.252 337.933 120.291 312.492 132.648C287.118 144.973 257.365 144.988 232.025 132.592C206.766 120.235 177.234 120.152 151.906 132.367L151.062 132.774C125.577 145.064 95.7991 144.988 70.3494 132.626C48.2754 121.905 22.9378 120.459 8.82964e-06 128.337L1.21967e-05 89.8222C22.9629 82.1473 48.2046 83.5519 70.3494 93.9915C95.8733 106.024 125.502 106.099 151.059 94.1359L151.911 93.7372C177.31 81.8483 206.692 81.9293 232.025 93.9579C257.44 106.025 287.043 106.01 312.491 94.0135C338.006 81.985 367.715 81.9462 393.23 93.9746C418.791 106.025 448.471 106.025 474.031 93.9748C499.555 81.9421 529.53 82.0634 555.087 94.0261C580.551 105.946 610.656 105.954 636.088 93.9648C661.421 82.0217 691.056 81.9746 716.323 94.0587C741.43 106.066 770.588 106.227 795.825 94.4969L797.764 93.5957C823.159 81.7925 852.491 81.9131 877.788 93.9246C903.247 106.013 932.867 106.015 958.36 93.9969C983.875 81.9684 1013.55 81.9462 1039.06 93.9747C1064.62 106.025 1094.27 106.042 1119.83 93.9918C1145.39 81.9417 1175 81.9417 1200.56 93.9918C1226.12 106.042 1255.73 106.042 1281.29 93.9918C1306.85 81.9417 1336.46 81.9417 1362.02 93.9918C1387.58 106.042 1417.22 106.025 1442.78 93.9749C1468.31 81.9422 1498.24 82.0462 1523.8 94.0089C1549.31 105.95 1579.35 105.981 1604.83 93.9701C1630.23 81.9945 1659.85 81.9459 1685.22 93.9918C1710.59 106.038 1740.21 105.989 1765.62 94.0135C1791.09 82.0024 1820.79 81.8724 1846.3 93.8136L1847.22 94.2463C1872.62 106.135 1902 106.054 1927.34 94.0256C1952.75 81.9583 1982.36 81.9732 2007.8 93.97C2033.32 105.998 2063.03 106.037 2088.54 94.0089C2114.1 81.9589 2143.75 81.9418 2169.31 93.9919C2194.87 106.042 2224.48 106.042 2250.04 93.9919C2273.69 82.8434 2300.83 82.0239 2325 91.5063Z" fill="#319FBC"/>
</g>
<defs>
<clipPath id="clip0_1:140">
<rect width="2325" height="218" fill="white"/>
</clipPath>
</defs>
</svg>
