<svg width="1440" height="1024" viewBox="0 0 1440 1024" fill="none" xmlns="http://www.w3.org/2000/svg">
<path d="M387.29 258.099C388.339 249.526 389.67 236.599 390.731 220.699C390.916 217.927 391.597 215.206 392.761 212.683C393.584 210.902 394.636 209.237 395.892 207.73L398.41 204.708C398.803 204.237 399.232 203.797 399.693 203.393L401.891 201.471C402.606 200.845 403.524 200.5 404.474 200.5C405.456 200.5 406.401 200.868 407.125 201.531L412 206L419.523 212.112C419.84 212.37 420.182 212.597 420.542 212.789C424.122 214.699 428.552 212.819 429.666 208.918L430.5 206L433.5 195L437 185.5L443.5 170L456 146.5L463.5 133L469.5 123.5L474.899 116.002C477.289 112.682 480.111 109.696 483.291 107.122L484.106 106.462C487.348 103.837 490.986 101.743 494.884 100.258C497.949 99.0907 501.148 98.3098 504.407 97.9338L507.068 97.6268C510.678 97.2102 514.324 97.1887 517.939 97.5627L519.375 97.7112C524.417 98.2328 529.323 99.6614 533.856 101.928L534.414 102.207C537.457 103.729 540.279 105.657 542.802 107.94L544.377 109.365C547.744 112.412 550.34 116.214 551.95 120.459L552.263 121.284C554.048 125.991 557.175 130.071 561.257 133.019C563.078 134.334 565.063 135.405 567.162 136.205L568.376 136.667C572.425 138.209 576.721 139 581.053 139H584.5H587.866C591.223 139 594.514 138.069 597.372 136.309C598.784 135.441 600.07 134.382 601.194 133.164L602.244 132.027C604.4 129.691 606.163 127.021 607.464 124.119L612 114L618 97L624.5 82L628.833 74.7781C630.936 71.2726 633.462 68.0383 636.352 65.1476L640 61.5L643.944 58.4521C648.604 54.8512 653.915 52.1837 659.587 50.5958C662.19 49.8667 664.854 49.3698 667.545 49.111L682.368 47.6857C687.099 47.2309 691.74 46.104 696.152 44.3391L702 42L712.064 36.9682C714.683 35.6586 717.412 34.5816 720.22 33.7497L722.547 33.0601C727.158 31.6938 731.942 31 736.752 31H750.997C755.643 31 760.266 31.6475 764.733 32.9238L767.998 33.8565C770.661 34.6175 773.257 35.5986 775.758 36.7896L776.633 37.2064C780.527 39.0604 784.154 41.4284 787.418 44.247L788.026 44.7724C791.65 47.9025 794.731 51.6111 797.144 55.7476L797.216 55.8711C799.393 59.6019 800.987 63.6428 801.944 67.8546C802.646 70.9418 803 74.0979 803 77.2639V85.128C803 88.699 802.617 92.2598 801.859 95.7494L801.08 99.3306C800.694 101.107 800.169 102.851 799.51 104.546C797.853 108.807 795.372 112.699 792.209 116L786.318 122.146C785.774 122.714 785.17 123.22 784.516 123.656L783.108 124.595C782.708 124.862 782.372 125.214 782.124 125.627L781.738 126.271C781.292 127.014 781.34 127.953 781.86 128.647C782.263 129.184 782.895 129.5 783.566 129.5H789.826C790.607 129.5 791.388 129.563 792.159 129.687L806.5 132L817.971 135.374C821.645 136.454 825.182 137.953 828.514 139.841L829.034 140.136C835.272 143.671 840.676 148.505 844.881 154.312L849 160C854.555 167.189 862.013 172.679 870.529 175.848L879 179L890.914 181.771C897.244 183.243 903.226 185.935 908.526 189.696L916 195L937.15 211.92C938.039 212.631 939.076 213.133 940.185 213.389C943.112 214.064 946.162 212.95 947.965 210.547L950.084 207.721C950.693 206.91 951.204 206.03 951.608 205.101L954.35 198.795C955.448 196.269 956.336 193.657 957.004 190.985L960 179L966 135.5L968 117.5L972 92.5L978.5 67L984.5 44L988.452 28.6311C988.816 27.2139 989.32 25.8362 989.957 24.5184L994.696 14.7017C995.493 13.0498 997.166 12 999 12C1001.51 12 1003.87 13.2025 1005.35 15.2349L1006.3 16.5409C1006.77 17.1785 1007.16 17.8639 1007.48 18.5855L1012.5 30L1021.5 55L1029.5 71L1034.75 81.1683C1036.56 84.6718 1037.5 88.5573 1037.5 92.5V117.445C1037.5 119.067 1038.21 120.607 1039.44 121.663C1040.45 122.526 1041.73 123 1043.05 123H1057.69C1059.23 123 1060.76 123.127 1062.28 123.38L1064.84 123.807C1067.57 124.262 1070.16 125.367 1072.37 127.029C1074.11 128.331 1075.58 129.949 1076.72 131.798L1077.18 132.535C1078.38 134.499 1079.27 136.642 1079.81 138.885L1080.72 142.674C1081.57 146.212 1082 149.838 1082 153.477V166.884C1082 168.948 1082.33 170.998 1082.99 172.956C1083.66 174.971 1084.66 176.861 1085.95 178.549L1090.5 184.5L1097.5 191.5C1100.98 194.348 1103 198.609 1103 203.106V226.23C1103 230.723 1103.61 235.195 1104.8 239.526L1105.7 242.798C1106.57 245.925 1107.73 248.961 1109.18 251.862L1111.01 255.514C1112.66 258.828 1114.68 261.947 1117.03 264.815L1118.51 266.623C1121.16 269.856 1124.27 272.678 1127.74 274.995C1130.24 276.66 1132.91 278.054 1135.7 279.151L1137.98 280.046C1142.96 282.003 1147.6 284.746 1151.71 288.172L1157.5 293L1173.5 310L1184.5 325.5L1190.02 334.127C1191.67 336.703 1193.08 339.426 1194.23 342.26L1199 354L1212.5 389.5L1224 413.5L1235 434.5L1243.36 447.584C1245.44 450.849 1247.93 453.84 1250.76 456.49L1251.17 456.881C1253.38 458.954 1255.82 460.778 1258.43 462.32L1260.6 463.604C1263.83 465.516 1267.45 466.779 1271.17 467.31C1274.35 467.764 1277.61 467.679 1280.75 467.049L1282.78 466.644C1283.26 466.548 1283.75 466.5 1284.23 466.5H1284.9C1286.85 466.5 1288.68 467.432 1289.82 469.007C1291.16 470.846 1291.36 473.276 1290.34 475.31L1288 480L1285.06 485.887C1284.02 487.956 1282.76 489.9 1281.28 491.683C1276.59 497.368 1274.1 504.561 1274.3 511.933L1275.82 571.202C1275.94 575.704 1275.32 580.195 1274 584.5L1269.5 595L1264.5 606L1259 624.5L1253.5 659L1251.15 667.109C1249.72 672.008 1247.56 676.659 1244.73 680.904L1243.38 682.932C1240.48 687.284 1236.91 691.153 1232.81 694.399L1230.09 696.552C1228.03 698.182 1226.11 699.97 1224.33 701.902L1219.62 707.023C1216.88 709.997 1214.52 713.291 1212.57 716.834L1207 727L1199.97 740.666C1198.66 743.217 1197.13 745.651 1195.4 747.94L1181 767L1167 782.5L1162.06 789.336C1161.02 790.774 1160.15 792.323 1159.45 793.953C1158.16 796.953 1157.5 800.183 1157.5 803.447V804.908C1157.5 806.964 1157.3 809.015 1156.89 811.031L1154.5 823L1151.89 831.17C1150.97 834.038 1149.6 836.741 1147.83 839.177C1144.36 843.94 1139.5 847.501 1133.91 849.363L1133.54 849.487C1130.53 850.489 1127.38 851 1124.22 851H1104.16C1100.07 851 1095.99 851.501 1092.03 852.493L1090 853L1080.47 856.53C1077.84 857.504 1075.38 858.882 1073.17 860.615L1071.69 861.78C1070.24 862.918 1069 864.297 1068.02 865.855L1066.4 868.418C1063.26 873.409 1057.03 875.489 1051.52 873.39C1050.84 873.13 1050.19 872.812 1049.56 872.437L1038 865.5L1032.18 861.733C1030.4 860.58 1028.72 859.272 1027.17 857.823L1024.04 854.9C1022.69 853.645 1021.6 852.141 1020.83 850.472L1019.22 846.985C1019.08 846.669 1018.84 846.404 1018.54 846.225C1017.53 845.62 1016.23 846.175 1015.96 847.319C1015.43 849.53 1014.79 852.142 1014.5 853C1014.33 853.521 1013.96 854.565 1013.54 855.729C1012.54 858.53 1010.81 861.011 1008.53 862.933C1006.54 864.622 1004.18 865.83 1001.64 866.464L999.715 866.946C995.634 867.966 991.366 867.966 987.285 866.946L973.5 863.5L971.403 862.684C966.826 860.905 962.012 859.809 957.115 859.432L938.5 858L936.826 857.681C930.989 856.569 925.396 854.426 920.311 851.351L907.679 843.713C906.895 843.239 906.155 842.694 905.47 842.085C903.209 840.075 901.608 837.43 900.874 834.496L900.823 834.293C900.608 833.433 900.466 832.555 900.399 831.671L898.155 802.046C898.052 800.687 897.782 799.346 897.351 798.054L897.058 797.173C896.688 796.065 896.5 794.904 896.5 793.736C896.5 791.012 895.477 788.387 893.634 786.381L881.146 772.792C880.097 771.65 878.617 771 877.067 771C876.362 771 875.664 771.134 875.009 771.396L869.105 773.758C867.039 774.584 864.905 775.231 862.728 775.689L857.817 776.723C856.941 776.907 856.049 777 855.154 777H852.093C849.838 777 847.722 775.911 846.411 774.076C846.138 773.693 845.904 773.283 845.713 772.853L845.345 772.027C844.458 770.03 843.169 768.238 841.558 766.762L841.312 766.536C839.139 764.544 836.499 763.133 833.636 762.433L819.906 759.077C816.975 758.36 814.114 757.38 811.36 756.148L803.538 752.648C798.873 750.562 794.557 747.773 790.738 744.378L787.941 741.892C784.662 738.977 781.786 735.638 779.389 731.963C776.81 728.008 774.811 723.704 773.454 719.181L771 711L766.354 686.505C765.79 683.528 764.676 680.681 763.07 678.112C761.373 675.397 759.159 673.042 756.555 671.182L750.606 666.933C747.893 664.995 744.839 663.585 741.605 662.776C738.234 661.934 734.731 661.76 731.294 662.266L722.287 663.59C720.432 663.863 718.558 664 716.683 664H708.543C704.017 664 699.66 662.283 696.351 659.195C694.796 657.743 693.513 656.026 692.562 654.123L689.379 647.758C688.796 646.592 688.053 645.512 687.172 644.551C684.513 641.651 680.76 640 676.826 640H662H661.772C654.35 640 647.022 641.652 640.319 644.836L614.715 656.998C611.911 658.33 608.989 659.398 605.987 660.188L605.287 660.372C602.435 661.122 599.521 661.619 596.581 661.856L579.046 663.27C573.117 663.749 567.414 665.758 562.495 669.103C559.19 671.351 555.519 673.004 551.646 673.988L528 680L512.29 686.211C508.449 687.729 504.839 689.778 501.565 692.296C496.257 696.379 491.944 701.612 488.95 707.601L486.203 713.094C485.078 715.345 483.54 717.364 481.67 719.047C480.231 720.342 478.612 721.423 476.864 722.255L475.392 722.956C471.184 724.96 466.581 726 461.92 726H420.887C415.661 726 410.468 726.819 405.496 728.428L401.09 729.853C397.706 730.948 394.449 732.4 391.374 734.186L380.5 740.5L353.5 761.5L334.07 773.598C329.389 776.513 324.258 778.633 318.885 779.873L315.588 780.634C310.232 781.869 304.71 782.214 299.243 781.653L297.376 781.462C291.185 780.827 285.175 778.994 279.683 776.064C275.255 773.703 271.225 770.661 267.739 767.051L263.661 762.828C260.578 759.634 258.078 755.925 256.275 751.868L254.154 747.096C253.393 745.384 253 743.532 253 741.66C253 739.582 253.484 737.532 254.413 735.674L255 734.5L262.502 721.47C263.829 719.165 264.879 716.711 265.63 714.159C266.539 711.069 267 707.865 267 704.644V703.123C267 698.078 266.138 693.07 264.451 688.316L264.234 687.705C262.424 682.605 259.766 677.847 256.371 673.633L249.605 665.234C247.871 663.082 246.319 660.789 244.964 658.381L242.065 653.226C239.4 648.489 238 643.145 238 637.709V636.923C238 629.875 235.479 623.058 230.891 617.706C229.633 616.239 228.235 614.899 226.715 613.705L215 604.5L203.599 593.492C201.537 591.501 199.65 589.337 197.959 587.022L194.997 582.97C192.345 579.34 190.194 575.369 188.602 571.164L185.457 562.851C184.487 560.288 183.73 557.65 183.192 554.962L181.971 548.855C181.325 545.626 181 542.341 181 539.049V534C181 532.465 181.92 509.955 182.436 497.53C182.478 496.522 182.263 495.527 181.812 494.624C181.283 493.565 180.45 492.688 179.42 492.105L167.893 485.573C166.639 484.862 165.506 483.956 164.536 482.89L163.41 481.651C161.859 479.945 161 477.723 161 475.418C161 474.807 161.06 474.199 161.18 473.6L162.029 469.355C162.675 466.126 163 462.842 163 459.549V451V419.755C163 416.923 163.24 414.097 163.719 411.306L164.75 405.294C165.579 400.458 167.115 395.77 169.309 391.381L169.475 391.051C172.137 385.726 175.728 380.92 180.08 376.859L183.703 373.477C186.887 370.505 190.446 367.962 194.29 365.912L203.5 361L236.5 349L252.972 345.061C257.303 344.025 261.467 342.388 265.343 340.198C269.097 338.076 272.546 335.454 275.595 332.405L284 324L292.287 316.988C295.414 314.342 298.895 312.147 302.63 310.467C305.535 309.159 308.573 308.172 311.692 307.523L327.381 304.254C329.79 303.752 332.159 303.073 334.469 302.222L351.805 295.835C356.901 293.958 361.657 291.262 365.886 287.856L374.066 281.267C376.347 279.429 378.405 277.329 380.197 275.01C384.005 270.082 386.533 264.282 387.29 258.099Z" fill="#B4D03C"/>
<path d="M1061 945H1050.5H1045.5H1044.31C1041.5 945 1038.75 944.168 1036.41 942.609C1035.81 942.204 1035.23 941.752 1034.69 941.258L1030.08 937.03C1029.69 936.677 1029.34 936.29 1029.03 935.873L1028.21 934.775C1027.13 933.343 1025.45 932.5 1023.66 932.5C1022.57 932.5 1021.52 932.192 1020.6 931.611L1017.31 929.516C1016.78 929.179 1016.17 929 1015.54 929C1014.86 929 1014.2 929.208 1013.65 929.596L1010.31 931.934C1009.77 932.311 1009.27 932.734 1008.8 933.198L1008.07 933.928C1006.43 935.575 1005.5 937.808 1005.5 940.137C1005.5 941.365 1005.76 942.58 1006.26 943.703L1008.01 947.641C1009 949.871 1010.27 951.968 1011.78 953.882L1017.44 961.026C1018.48 962.337 1019.35 963.767 1020.06 965.286C1021.34 968.062 1022 971.083 1022 974.141V984L1022.91 991.267C1023.3 994.388 1024.34 997.393 1025.95 1000.09C1028.27 1003.94 1031.67 1007.02 1035.74 1008.93L1038.75 1010.33C1043.19 1012.42 1048.05 1013.5 1052.96 1013.5H1053.5C1057.32 1013.5 1060.96 1011.88 1063.51 1009.04L1064 1008.5L1069.12 1003.85C1069.37 1003.62 1069.65 1003.42 1069.95 1003.25C1072.16 1002.02 1074.94 1002.89 1076.07 1005.14L1076.16 1005.33C1076.39 1005.77 1076.68 1006.18 1077.03 1006.53L1078.1 1007.6C1078.68 1008.18 1079.46 1008.5 1080.27 1008.5C1081.34 1008.5 1082.34 1007.94 1082.89 1007.01L1083.01 1006.82C1083.33 1006.28 1083.5 1005.67 1083.5 1005.04V1001V988V984.103C1083.5 980.131 1084.72 976.254 1087 973L1096 957.5C1097.32 954.87 1098 951.969 1098 949.028V948.5V946.854C1098 943.879 1096.32 941.16 1093.66 939.829C1092.57 939.284 1091.37 939 1090.15 939H1089.17C1087.74 939 1086.31 939.258 1084.97 939.763L1079 942L1076.85 942.679C1071.98 944.217 1066.9 945 1061.79 945H1061Z" fill="#B4D03C"/>
<path d="M390.468 225.466C390.489 225.488 390.515 225.506 390.543 225.517L403 230.5L410.213 232.303C413.392 233.098 416.657 233.5 419.935 233.5V233.5C422.968 233.5 425.992 233.156 428.948 232.473L429.643 232.313C434.842 231.113 439.795 229.025 444.283 226.14L465.5 212.5C466.5 211.667 469 210 471 210H476.115C485.378 210 492.736 201.5 502 201.5V201.5C503.014 201.5 506.892 199.358 510.658 197.111C514.56 194.782 518.766 192.985 523.197 191.978V191.978C526.057 191.328 528.98 191 531.912 191H542.522C547.599 191 552.435 188.838 555.82 185.055V185.055C557.903 182.726 559.339 179.891 559.983 176.833L561 172L562.388 167.836C563.104 165.688 564.587 163.879 566.553 162.756V162.756C569.041 161.334 572.049 161.152 574.69 162.264L580 164.5L615.565 175.443C617.852 176.147 620.187 176.685 622.551 177.055L628.459 177.978C632.788 178.654 637.201 178.592 641.51 177.794V177.794C646.131 176.939 650.559 175.25 654.577 172.811L656.603 171.58C660.516 169.205 664.084 166.303 667.207 162.957L668.058 162.045C673.603 156.104 680.511 151.605 688.185 148.936L695.31 146.457C698.098 145.488 700.962 144.765 703.879 144.313C711.701 143.1 722.512 141.5 724.5 141.5C726.257 141.5 735.221 140.471 742.646 139.618C747.897 139.015 752.379 138.5 753 138.5C753.671 138.5 755.841 137.6 758.348 136.561C761.448 135.276 765.065 133.776 767 133.5C769.572 133.133 776.84 130.487 780.978 128.896C781.395 128.736 781.541 128.221 781.273 127.864V127.864C781.108 127.644 781.092 127.346 781.234 127.11L782.124 125.627C782.372 125.214 782.708 124.862 783.108 124.595L784.516 123.656C785.17 123.22 785.774 122.714 786.318 122.146L792.209 116C795.372 112.699 797.853 108.807 799.51 104.546V104.546C800.169 102.851 800.694 101.107 801.08 99.3306L801.859 95.7494C802.617 92.2599 803 88.699 803 85.128V77.2639C803 74.0979 802.646 70.9418 801.944 67.8546V67.8546C800.987 63.6428 799.393 59.6019 797.216 55.8711L797.144 55.7476C794.731 51.6111 791.65 47.9026 788.026 44.7724L787.418 44.247C784.154 41.4284 780.527 39.0604 776.634 37.2064L775.758 36.7896C773.257 35.5986 770.661 34.6175 767.998 33.8565L764.733 32.9238C760.266 31.6475 755.643 31 750.997 31H736.752C731.942 31 727.158 31.6938 722.547 33.0601L720.22 33.7497C717.412 34.5816 714.683 35.6586 712.064 36.9682L702 42L696.152 44.3391C691.74 46.104 687.099 47.2309 682.368 47.6857L667.545 49.111C664.854 49.3698 662.19 49.8667 659.587 50.5958V50.5958C653.916 52.1837 648.604 54.8512 643.944 58.4521L640 61.5L636.352 65.1476C633.462 68.0383 630.936 71.2726 628.833 74.7781L624.5 82L618 97L612 114L607.464 124.119C606.163 127.021 604.4 129.691 602.244 132.027L601.194 133.164C600.07 134.382 598.784 135.441 597.372 136.309V136.309C594.514 138.069 591.223 139 587.866 139H581.053C576.721 139 572.425 138.209 568.376 136.667L567.162 136.205C565.063 135.405 563.078 134.334 561.257 133.019V133.019C557.175 130.071 554.048 125.991 552.263 121.284L551.95 120.459C550.34 116.214 547.744 112.412 544.377 109.365L542.802 107.94C540.279 105.657 537.457 103.729 534.414 102.207L533.856 101.928C529.323 99.6614 524.417 98.2328 519.375 97.7112L517.939 97.5627C514.324 97.1887 510.678 97.2102 507.068 97.6268L504.407 97.9338C501.148 98.3098 497.949 99.0907 494.884 100.258V100.258C490.986 101.743 487.348 103.837 484.106 106.462L483.291 107.122C480.111 109.696 477.289 112.682 474.899 116.002L469.5 123.5L463.5 133L456 146.5L443.5 170L437 185.5L433.5 195L430.5 206L429.666 208.918C428.552 212.819 424.122 214.699 420.542 212.789V212.789C420.182 212.597 419.84 212.37 419.523 212.112L412 206L407.125 201.531C406.401 200.868 405.456 200.5 404.474 200.5V200.5C403.524 200.5 402.606 200.845 401.891 201.471L399.693 203.393C399.232 203.797 398.803 204.237 398.41 204.708L395.892 207.73C394.636 209.237 393.584 210.902 392.761 212.683L392.117 214.079C391.379 215.679 390.946 217.403 390.832 219.161C390.696 221.26 390.555 223.309 390.41 225.305C390.406 225.364 390.427 225.423 390.468 225.466V225.466Z" fill="#609D43"/>
<path d="M1198.54 352.935C1198.52 352.972 1198.47 352.987 1198.43 352.97L1185.27 347.07C1184.43 346.691 1183.61 346.237 1182.85 345.715L1173 339C1169.83 337.167 1163.2 333.4 1162 333C1160.8 332.6 1150.83 325.5 1146 322L1133 312L1120.5 303L1099 285.5L1085 272.5L1077.62 266.352C1074.55 263.793 1071.8 260.875 1069.42 257.661L1064.5 251L1060.84 246.979C1059.95 245.999 1058.91 245.172 1057.75 244.53L1057.53 244.405C1055.87 243.484 1053.98 243 1052.09 243V243C1051.37 243 1050.65 243.071 1049.94 243.211V243.211C1047.4 243.72 1045.12 245.121 1043.52 247.162L1040.5 251L1034 258L1033.46 258.636C1029.85 262.839 1027.68 269.056 1022.5 271V271C1020.25 271.845 1017.53 272.244 1015.54 272.406C1014.19 272.516 1012.83 272.346 1011.51 272.041V272.041C1008.55 271.358 1005.82 269.934 1003.56 267.902L1002 266.5L999.572 263.667C997.198 260.897 994.528 258.396 991.609 256.207L985.225 251.418C983.079 249.809 980.793 248.397 978.395 247.197V247.197C976.136 246.068 973.785 245.132 971.368 244.399L962.693 241.771C959.903 240.925 957.044 240.325 954.15 239.978L946 239L927.587 236.908C925.199 236.636 922.833 236.193 920.508 235.581L905 231.5L898.457 229.738C894.188 228.589 890.163 226.673 886.579 224.085V224.085C884.202 222.368 882.04 220.371 880.141 218.136L874.5 211.5L870.976 206.621C868.997 203.881 867.301 200.947 865.914 197.865L863.5 192.5L860.5 183L858.5 176.5L857.005 170.52C857.002 170.507 857.004 170.494 857.011 170.482V170.482C857.029 170.451 857.073 170.448 857.095 170.477L857.427 170.906C857.475 170.967 857.539 171.014 857.612 171.042L879 179L890.914 181.771C897.244 183.243 903.226 185.935 908.526 189.696L916 195L937.15 211.92C938.039 212.631 939.076 213.133 940.185 213.389V213.389C943.112 214.064 946.162 212.95 947.965 210.547L950.084 207.721C950.693 206.91 951.204 206.03 951.608 205.101L954.35 198.795C955.448 196.269 956.336 193.657 957.004 190.985L960 179L966 135.5L968 117.5L972 92.5L978.5 67L984.5 44L988.452 28.6311C988.816 27.2139 989.32 25.8362 989.957 24.5184L994.32 15.4803C995.347 13.3523 997.502 12 999.865 12V12C1001.83 12 1003.69 12.9426 1004.84 14.5357L1006.3 16.5409C1006.77 17.1785 1007.16 17.8639 1007.48 18.5855L1012.5 30L1021.5 55L1029.5 71L1032.19 76.2134C1035.68 82.9729 1037.5 90.4692 1037.5 98.0759V117.445C1037.5 119.067 1038.21 120.607 1039.44 121.663V121.663C1040.45 122.526 1041.73 123 1043.05 123H1057.69C1059.23 123 1060.76 123.127 1062.28 123.38L1064.84 123.807C1067.57 124.262 1070.16 125.367 1072.37 127.029V127.029C1074.11 128.331 1075.58 129.949 1076.72 131.798L1077.18 132.535C1078.38 134.499 1079.27 136.642 1079.81 138.885L1080.72 142.674C1081.57 146.212 1082 149.838 1082 153.477V166.884C1082 168.948 1082.33 170.998 1082.99 172.956V172.956C1083.66 174.971 1084.66 176.861 1085.95 178.549L1090.5 184.5L1097.5 191.5V191.5C1100.98 194.348 1103 198.609 1103 203.106V226.23C1103 230.723 1103.61 235.195 1104.8 239.526L1105.7 242.798C1106.57 245.925 1107.73 248.961 1109.18 251.862L1111.01 255.514C1112.66 258.828 1114.68 261.947 1117.03 264.815L1118.51 266.623C1121.16 269.856 1124.27 272.678 1127.74 274.995V274.995C1130.24 276.66 1132.91 278.054 1135.7 279.151L1137.98 280.046C1142.96 282.003 1147.6 284.746 1151.71 288.172L1157.5 293L1173.5 310L1184.5 325.5L1191.09 335.803C1192.03 337.264 1192.83 338.809 1193.48 340.417L1198.54 352.866C1198.55 352.889 1198.55 352.914 1198.54 352.935V352.935Z" fill="#609D43"/>
<path d="M1246.57 678.142C1248.03 675.96 1247.95 673.097 1246.37 670.998V670.998C1246.13 670.667 1245.84 670.361 1245.53 670.086L1244.57 669.229C1242.55 667.431 1240.93 665.22 1239.83 662.746L1239.48 661.958C1238.17 659.019 1237.5 655.838 1237.5 652.622V651.06C1237.5 645.778 1238.88 640.586 1241.5 636V636V636C1244.46 629.745 1246 622.91 1246 615.988V614.155C1246 610.067 1246.56 606.005 1247.35 601.995C1247.72 600.141 1248 598.417 1248 597.5C1248 596.25 1248.5 594 1249 591.75C1249.5 589.5 1250 587.25 1250 586C1250 584.889 1250.41 582.903 1250.89 580.987C1251.56 578.315 1252.63 575.769 1253.8 573.276C1255.15 570.413 1256.5 567.306 1256.5 566.5C1256.5 565.713 1256.93 563.161 1257.37 560.793C1257.77 558.6 1258 556.377 1258 554.147V553.141C1258 551.717 1257.87 550.295 1257.61 548.895V548.895C1256.88 545.03 1255.17 541.421 1252.68 538.371C1251.56 536.997 1250.54 535.717 1250 535C1249.39 534.193 1248 533.521 1246.51 533.011C1243.9 532.119 1241.12 532 1238.36 532H1233.5C1233.16 532 1232.62 532.161 1231.99 532.416C1228.61 533.772 1226.3 536.856 1225.03 540.265L1224.43 541.85C1224.15 542.611 1224 543.416 1224 544.228V546.384C1224 548.933 1221.93 551 1219.38 551V551C1217.89 551 1216.49 551.725 1215.62 552.944L1206 566.5L1196 581L1186 597.5L1183.15 603.483C1181.72 606.487 1180.59 609.626 1179.79 612.853L1175 632L1172.68 638.378C1171.67 641.153 1169.03 643 1166.08 643V643C1165.36 643 1164.65 642.89 1163.97 642.674L1157.71 640.697C1156.24 640.234 1154.83 639.615 1153.49 638.851L1152.12 638.068C1149.75 636.713 1147.06 636 1144.33 636V636C1142.13 636 1139.96 636.461 1137.96 637.353L1136.02 638.215C1133.36 639.397 1130.92 641.02 1128.81 643.017L1123 648.5L1104.5 669L1092.5 685L1085.79 695.394C1083.61 698.786 1081.84 702.429 1080.52 706.246L1078.76 711.381C1077.59 714.784 1076.06 718.05 1074.19 721.124L1070 728L1063.59 739.695C1062.2 742.227 1060.59 744.634 1058.79 746.888L1055.5 751V751C1051.21 755.29 1047.82 760.392 1045.52 766.008L1044.5 768.5L1038.5 780.5L1034.98 788.958C1034.01 791.288 1032.51 793.36 1030.6 795.013V795.013C1027.63 797.585 1023.84 799 1019.91 799H1018.35C1015.48 799 1012.65 798.398 1010.02 797.233L999.684 792.637C997.232 791.548 994.696 790.657 992.102 789.974L988.808 789.107C987.272 788.703 985.776 788.162 984.337 787.491L984.22 787.436C980.782 785.832 977.034 785 973.239 785V785C970.759 785 968.292 784.645 965.913 783.945L961 782.5L948 780.5C945.333 779.833 939.8 778.4 939 778C938 777.5 930 776 928.5 776C927.3 776 915 769.333 909 766L905.076 763.602C901.704 761.541 898.588 759.088 895.793 756.293L893.426 753.926C891.479 751.979 889.374 750.196 887.133 748.595L884.833 746.952C881.622 744.659 878.694 741.993 876.11 739.012L873.5 736L866.5 725.5L859 715L853 706L848.5 699.5V699.5C847.251 697.626 845.147 696.5 842.894 696.5H841C840.464 696.5 839.708 696.899 838.947 697.43C837.206 698.644 836.045 700.486 835.156 702.413V702.413C834.065 704.776 833.5 707.348 833.5 709.951V715L832.497 723.355C832.166 726.113 831.606 728.84 830.822 731.506L830.514 732.554C829.839 734.848 828.992 737.088 827.981 739.255V739.255C826.664 742.078 825.072 744.765 823.23 747.278L820.5 751L814.513 757.485C814.505 757.495 814.5 757.507 814.5 757.52V757.52C814.5 757.54 814.512 757.558 814.53 757.566L815.377 757.945C815.459 757.982 815.544 758.011 815.631 758.032L833.636 762.433C836.499 763.133 839.139 764.544 841.312 766.536L841.558 766.762C843.169 768.238 844.458 770.03 845.345 772.027L845.713 772.853C845.904 773.283 846.138 773.693 846.411 774.076V774.076C847.722 775.911 849.838 777 852.093 777H855.154C856.049 777 856.941 776.907 857.817 776.723L862.728 775.689C864.905 775.23 867.039 774.584 869.105 773.758L875.009 771.396C875.664 771.134 876.362 771 877.067 771V771C878.618 771 880.097 771.65 881.146 772.792L893.634 786.381C895.477 788.387 896.5 791.012 896.5 793.736V793.736C896.5 794.904 896.688 796.065 897.058 797.173L897.351 798.054C897.782 799.346 898.052 800.687 898.155 802.046L900.399 831.671C900.466 832.555 900.608 833.433 900.823 834.293L900.874 834.496C901.608 837.43 903.209 840.075 905.47 842.085V842.085C906.155 842.694 906.895 843.239 907.679 843.713L920.311 851.351C925.396 854.426 930.989 856.569 936.826 857.681L938.5 858L957.115 859.432C962.012 859.809 966.826 860.905 971.403 862.684L973.5 863.5L987.285 866.946C991.366 867.966 995.634 867.966 999.715 866.946L1001.64 866.464C1004.18 865.83 1006.54 864.622 1008.53 862.933V862.933C1010.81 861.011 1012.54 858.53 1013.54 855.729C1013.96 854.565 1014.33 853.521 1014.5 853C1014.79 852.142 1015.43 849.53 1015.96 847.319C1016.23 846.175 1017.53 845.62 1018.54 846.225V846.225C1018.84 846.404 1019.08 846.669 1019.22 846.985L1020.83 850.472C1021.6 852.141 1022.69 853.645 1024.04 854.9L1027.17 857.823C1028.72 859.272 1030.4 860.58 1032.18 861.733L1038 865.5L1049.56 872.437C1050.19 872.812 1050.84 873.13 1051.52 873.39V873.39C1057.03 875.489 1063.26 873.409 1066.4 868.418L1068.02 865.855C1069 864.297 1070.24 862.918 1071.69 861.78L1073.17 860.615C1075.38 858.882 1077.84 857.504 1080.47 856.53L1090 853L1092.03 852.493C1095.99 851.501 1100.07 851 1104.16 851H1124.22C1127.38 851 1130.53 850.489 1133.54 849.487L1133.91 849.363C1139.5 847.501 1144.36 843.94 1147.83 839.177V839.177C1149.6 836.741 1150.97 834.038 1151.89 831.17L1154.5 823L1156.89 811.032C1157.3 809.015 1157.5 806.964 1157.5 804.908V803.447C1157.5 800.183 1158.16 796.953 1159.45 793.953V793.953C1160.15 792.323 1161.02 790.774 1162.06 789.336L1167 782.5L1181 767L1195.4 747.94C1197.13 745.651 1198.66 743.217 1199.97 740.666L1207 727L1212.57 716.834C1214.52 713.291 1216.88 709.997 1219.62 707.023L1224.33 701.902C1226.11 699.97 1228.03 698.182 1230.09 696.552L1236.42 691.541C1238.13 690.189 1239.62 688.577 1240.82 686.764L1246.57 678.142Z" fill="#609D43"/>
<path d="M376.677 290.772L376.173 290.495C371.243 287.784 365.156 288.37 360.835 291.971C359.621 292.983 358.241 293.776 356.755 294.316L334.874 302.273C332.628 303.09 330.325 303.745 327.985 304.232L312.013 307.56C309.012 308.185 306.081 309.108 303.263 310.316C299.11 312.096 295.242 314.477 291.782 317.383L284.5 323.5L275.625 332.375C272.228 335.772 268.333 338.631 264.074 340.853C260.704 342.611 257.133 343.956 253.441 344.859L236.5 349L206.751 359.499C203.923 360.498 201.19 361.749 198.586 363.237L193.527 366.128C190.187 368.036 187.078 370.324 184.263 372.945L180.611 376.345C176.239 380.415 172.632 385.236 169.96 390.579L168.994 392.511C167.007 396.486 165.558 400.708 164.687 405.066L163.471 411.145C162.825 414.374 162.5 417.658 162.5 420.951V461.077C162.5 463.688 162.295 466.296 161.888 468.875L161.125 473.708C161.042 474.235 161 474.768 161 475.302C161 477.691 161.838 480.005 163.368 481.841L164.259 482.911C165.409 484.291 166.813 485.438 168.395 486.289L172.5 488.5L178.601 491.73C180.146 492.548 181.339 493.904 181.953 495.542C182.314 496.503 182.463 497.53 182.392 498.553L181.495 511.407C181.251 514.907 184.494 517.627 187.898 516.776C188.624 516.594 189.38 516.573 190.116 516.71C193.877 517.412 200.055 518.5 201.5 518.5C208.404 518.5 213.414 525.68 220.152 527.181C221.039 527.379 221.705 527.5 222 527.5C222.863 527.5 226.19 529.913 229.045 532.136C231.027 533.68 233.156 535.03 235.44 536.077L237.587 537.061C241.756 538.971 246.421 539.516 250.917 538.617C252.962 538.208 254.941 537.518 256.754 536.487C260.226 534.513 264.855 531.645 267 529.5C270.019 526.481 272.24 522.724 274.488 519.095C275.149 518.027 275.71 517.08 276 516.5C276.259 515.981 276.666 515.343 277.132 514.677C278.829 512.251 281.704 511 284.665 511C287.136 511 289.523 511.902 291.376 513.537L294.817 516.574C296.266 517.853 297.543 519.314 298.615 520.922L303 527.5L310.486 542.812C312.814 547.574 315.884 551.935 319.582 555.732L329.237 565.648C331.407 567.878 333.782 569.9 336.329 571.688L349.902 581.218C353.945 584.057 358.386 586.281 363.081 587.818L383.5 594.5L406.5 601C412.333 602 424.4 604 426 604C426.497 604 427.587 604.418 428.962 605.06C435.774 608.238 441.165 613.748 445.335 620.002L450.365 627.548C454.084 633.126 458.886 637.899 464.487 641.583L467.386 643.491C472.421 646.803 478.012 649.178 483.891 650.501L489.58 651.78C493.182 652.591 496.863 653 500.556 653H513.373C515.788 653 518.197 652.828 520.585 652.469C529.102 651.19 541.613 649.194 543 648.5C544.6 647.7 563.333 644.167 572.5 642.5L601 636L628.5 627L648.5 618.5C653.833 616.333 664.9 611.6 666.5 610C668.5 608 675.5 603.5 678 603.5C680.5 603.5 690 601 692 600.5C693.6 600.1 700.333 602.333 703.5 603.5L718 610L731.5 618.5L755 632.5L765.5 637C769.5 639 778.1 643 780.5 643C781.947 643 786.372 643.605 790.755 644.269C795.893 645.047 801.116 645.106 806.263 644.387C811.328 643.679 816.479 643 817.5 643H819.325C827.642 643 835.951 641.117 842.975 636.665C844.401 635.761 845.514 634.986 846 634.5C847.168 633.332 851.069 631.916 854.323 630.912C856.421 630.265 858.611 630 860.806 630H862.143C865.655 630 869.108 630.905 872.169 632.626C874.371 633.865 876.324 635.5 877.929 637.45L879 638.75C881.313 641.559 884.129 643.912 887.292 645.71C889.578 647.009 891.885 648.331 893 649C895.5 650.5 900 653.5 902 653.5C906.498 653.5 902.079 661.473 898.237 663.812L894.859 665.868C893.626 666.619 892.505 667.54 891.529 668.604L890.463 669.767C888.557 671.847 887.5 674.565 887.5 677.385C887.5 680.043 888.439 682.615 890.15 684.647L891.74 686.535C894.184 689.438 897.476 691.522 901.186 692.318C904.117 692.946 907.117 693.5 908.5 693.5H926.421C929.132 693.5 931.834 693.197 934.477 692.596L936.384 692.163C939.762 691.395 942.956 689.972 945.786 687.975C948.569 686.01 950.947 683.527 952.789 680.661L954.5 678C956.333 675 960.3 668.6 961.5 667C965.239 662.015 971.261 659.348 977.371 658.126L980.5 657.5L984.226 656.204C989.374 654.413 994.195 651.793 998.497 648.447L1002.25 645.528C1004.41 643.845 1006.43 641.988 1008.29 639.974L1017.5 630L1024.5 621C1026.67 618.333 1030.9 612.7 1030.5 611.5C1030.29 610.878 1029.54 608.436 1028.7 605.694C1027.28 601.081 1024.14 597.19 1019.93 594.847C1018.32 593.954 1016.59 593.308 1014.79 592.904C1009.74 591.765 1002.5 590 1000.5 589C997.5 587.5 996.5 583 996 581C995.5 579 1000.5 572.5 1000.5 570.5C1000.5 569.684 1001.02 567.619 1001.66 565.394C1002.8 561.465 1003.5 557.415 1003.5 553.326V550.432C1003.5 547.504 1002.94 544.603 1001.85 541.885C1000.96 539.642 999.705 537.561 998.195 535.676C995.647 532.495 992.597 528.493 992 527C991.426 525.565 989.275 520.787 987.427 516.723C986.161 513.939 985.5 510.916 985.5 507.857C985.5 505.307 985.041 502.777 984.146 500.388L983.097 497.593C982.702 496.54 982.5 495.424 982.5 494.299V490.416C982.5 489.242 983.164 488.168 984.214 487.643C985.03 487.235 985.983 487.207 986.822 487.566L987.701 487.943C988.551 488.308 989.484 488.437 990.402 488.317L998.235 487.295C999.731 487.1 1001.18 486.62 1002.49 485.88C1006.2 483.792 1008.5 479.864 1008.5 475.605V475.343C1008.5 474.45 1008.4 473.56 1008.21 472.689L1006.63 465.594C1005.88 462.207 1004.78 458.908 1003.34 455.75L1000.5 449.5L997.03 443.191C995.679 440.735 994.565 438.158 993.505 435.563C991.922 431.69 989.734 427.156 988 426C985.6 424.4 987 418.667 988 416L990.344 409.359C990.781 408.121 991.31 406.919 991.928 405.761C993.945 401.978 995 397.758 995 393.471V373.5C995 371 989 362 988 359C987.2 356.6 983.667 352 982 350L976.309 344.081C971.856 339.45 966.213 336.135 960 334.5L950 332.5L947.914 331.887C943.66 330.635 939.248 330 934.814 330C930.296 330 925.801 330.66 921.473 331.958L920.029 332.391C915.368 333.79 910.483 334.779 905.69 333.934C903.946 333.626 902.5 333.167 902 332.5C900.5 330.5 897.5 325.5 895.5 321C893.5 316.5 890 312.5 888.5 312.5C887 312.5 881 297.5 879.5 296.5C878 295.5 874.5 290.5 873 290.5H866.708C864.582 290.5 862.456 290.83 860.429 291.47C856.266 292.784 851.77 292.757 847.629 291.376C845.884 290.795 844.217 289.995 842.737 288.902C840.531 287.273 837.708 284.993 836 283C833 279.5 828.5 274 827 272C826.152 270.869 823.923 269.007 822.041 267.541C820.707 266.501 819.162 265.777 817.528 265.341C814.289 264.477 810.844 264.828 807.845 266.327L807.526 266.487C805.535 267.483 803.796 268.918 802.441 270.685L793 283L785.515 294.908C783.182 298.62 781.347 302.622 780.058 306.813L780 307C778.833 309.5 775.6 314.5 772 314.5C767.5 314.5 760 312.5 756.5 310C753 307.5 751 304 748 304H732.5C729.5 304 716 312.5 716 314.5C716 316.5 713.5 326 716 327.5C718 328.7 727.833 332.667 732.5 334.5L748 340.5L763 344L782 346.5H798.5C801.066 346.5 805.09 347.786 807.787 348.811C808.936 349.248 810.015 349.843 811.038 350.525L815.297 353.364C818.235 355.323 820 358.621 820 362.153C820 364.638 819.124 367.043 817.525 368.946L811.893 375.651C810.302 377.545 808.513 379.263 806.556 380.775L801.37 384.782C799.459 386.259 797.444 387.595 795.34 388.78L763 407L735.5 418L722.057 422.826C718.035 424.269 713.846 425.191 709.59 425.57L693.5 427H682.989C679.341 427 675.697 426.627 672.168 425.704C667.579 424.504 662.212 422.883 660 421.5C659.093 420.933 657.897 420.112 656.581 419.173C650.174 414.605 645.254 408.29 641.904 401.17L641.158 399.585C639.723 396.536 638.6 393.35 637.806 390.075L636.01 382.668C635.339 379.899 635 377.06 635 374.211C635 368.807 636.235 363.479 638.524 358.583C640.442 354.48 642.26 350.461 642.5 349.5C642.763 348.448 644.627 345.319 646.441 342.447C648.101 339.818 650.303 337.58 652.843 335.787C655.909 333.623 658.578 330.848 659.912 327.341C660.812 324.978 661.433 322.515 661 321C660.547 319.415 659.753 317.436 658.997 315.714C658.079 313.619 656.338 312.016 654.227 311.136C652.451 310.396 650.492 310.211 648.609 310.605L641.612 312.07C634.111 313.639 626.297 312.516 619.543 308.898L616 307C612.5 304.833 605.1 300.5 603.5 300.5C602.638 300.5 600.383 299.436 598.017 298.167C594.294 296.172 590.44 294.419 586.459 293.009C583.097 291.819 579.696 290.457 578.5 289.5C576.5 287.9 572 286.5 570 286L551 283L534 281H492.138C487.732 281 483.345 281.582 479.092 282.732L467 286L455.369 289.998C452.467 290.996 449.692 292.333 447.102 293.98C442.421 296.959 437.159 298.906 431.666 299.691L429.47 300.004C427.16 300.334 424.829 300.5 422.495 300.5H416.824C414.278 300.5 411.737 300.306 409.221 299.919L404.188 299.144C401.401 298.716 398.655 298.052 395.98 297.16L389.5 295L379.445 291.94C378.484 291.647 377.557 291.256 376.677 290.772Z" fill="#D26328"/>
<path fill-rule="evenodd" clip-rule="evenodd" d="M1050.5 945H1061H1061.79C1066.9 945 1071.98 944.217 1076.85 942.679L1079 942L1084.97 939.763C1086.31 939.258 1087.74 939 1089.17 939H1090.15C1091.37 939 1092.57 939.284 1093.66 939.829V939.829C1096.32 941.16 1098 943.879 1098 946.854V948.5V949.028C1098 951.969 1097.32 954.869 1096 957.5V957.5L1087 973V973C1084.72 976.254 1083.5 980.131 1083.5 984.103V988V1001V1005.04C1083.5 1005.67 1083.33 1006.28 1083.01 1006.82L1082.89 1007.01C1082.34 1007.94 1081.34 1008.5 1080.27 1008.5V1008.5C1079.46 1008.5 1078.68 1008.18 1078.1 1007.6L1077.03 1006.53C1076.68 1006.18 1076.39 1005.77 1076.16 1005.33L1076.07 1005.14C1074.94 1002.89 1072.16 1002.02 1069.95 1003.25V1003.25C1069.65 1003.42 1069.37 1003.62 1069.12 1003.85L1064 1008.5L1063.51 1009.04C1060.96 1011.88 1057.32 1013.5 1053.5 1013.5V1013.5H1052.96C1048.05 1013.5 1043.19 1012.42 1038.75 1010.33L1035.74 1008.93C1031.67 1007.02 1028.27 1003.94 1025.95 1000.09V1000.09C1024.34 997.393 1023.3 994.388 1022.91 991.267L1022 984V974.141C1022 971.083 1021.34 968.062 1020.06 965.286V965.286C1019.35 963.767 1018.48 962.337 1017.44 961.026L1011.78 953.882C1010.27 951.968 1009 949.871 1008.01 947.641L1006.26 943.703C1005.76 942.58 1005.5 941.365 1005.5 940.137V940.137C1005.5 937.808 1006.43 935.575 1008.07 933.928L1008.8 933.198C1009.27 932.734 1009.77 932.311 1010.31 931.934L1013.65 929.596C1014.2 929.208 1014.86 929 1015.54 929V929C1016.17 929 1016.78 929.179 1017.31 929.516L1020.6 931.611C1021.52 932.192 1022.57 932.5 1023.66 932.5V932.5C1025.45 932.5 1027.13 933.343 1028.21 934.775L1029.03 935.873C1029.34 936.29 1029.69 936.677 1030.08 937.03L1034.69 941.258C1035.23 941.752 1035.81 942.204 1036.41 942.609V942.609C1038.75 944.168 1041.5 945 1044.31 945H1045.5H1050.5Z" fill="#609D43"/>
</svg>
