<svg width="2325" height="219" viewBox="0 0 2325 219" fill="none" xmlns="http://www.w3.org/2000/svg">
<rect y="49.8039" width="2325" height="168.378" fill="#2690A8"/>
<path fill-rule="evenodd" clip-rule="evenodd" d="M0 50.5597V11.9981C24.1276 21.7337 51.3879 20.89 74.9628 9.43937C100.449 -2.93958 130.206 -2.93958 155.692 9.43937C181.178 21.8183 210.971 21.8007 236.457 9.42177C261.898 -2.93498 291.755 -2.89557 317.195 9.46118C342.57 21.786 372.322 21.801 397.662 9.4046C422.921 -2.95235 452.454 -3.03525 477.782 9.17969L478.698 9.62172C504.137 21.8899 533.978 21.7568 559.383 9.41767C584.712 -2.88534 614.484 -2.93511 639.779 9.43937C665.074 21.8139 694.845 21.7641 720.175 9.46108C745.579 -2.87806 775.762 -2.84645 801.201 9.42174C826.685 21.712 856.769 21.8182 882.219 9.45681C907.705 -2.92214 937.498 -2.93958 962.984 9.43937C988.47 21.8183 1018.23 21.8183 1043.71 9.43937C1069.2 -2.93958 1098.96 -2.93958 1124.44 9.43937C1149.93 21.8183 1179.69 21.8183 1205.17 9.43937C1230.66 -2.93958 1260.45 -2.92198 1285.94 9.45698C1311.38 21.8137 1341.2 21.7915 1366.64 9.43475C1392.06 -2.9117 1421.83 -2.90958 1447.21 9.50859C1472.44 21.8481 1501.92 21.9716 1527.24 9.84366L1529.16 8.92385C1554.33 -3.1294 1583.64 -2.96483 1608.68 9.37031C1633.87 21.7838 1663.65 21.736 1688.92 9.46581C1714.27 -2.85091 1744.52 -2.84199 1769.91 9.40391C1795.4 21.6942 1825.52 21.8182 1850.97 9.45681C1876.45 -2.92214 1906.28 -2.92198 1931.77 9.45698C1957.21 21.8137 1987.07 21.7743 2012.51 9.41757C2037.88 -2.90726 2067.64 -2.92228 2092.97 9.47414C2118.23 21.8311 2147.77 21.914 2173.09 9.69906L2173.94 9.292C2199.42 -2.99828 2229.2 -2.92182 2254.65 9.43954C2276.72 20.1611 2302.06 21.6063 2325 13.7292V52.2435C2302.04 59.9184 2276.8 58.5138 2254.65 48.0742C2229.13 36.0415 2199.5 35.967 2173.94 47.9298L2173.09 48.3285C2147.69 60.2174 2118.31 60.1364 2092.97 48.1078C2067.56 36.0405 2037.96 36.0555 2012.51 48.0523C1986.99 60.0807 1957.28 60.1196 1931.77 48.0911C1906.21 36.0411 1876.53 36.0409 1850.97 48.091C1825.44 60.1237 1795.47 60.0024 1769.91 48.0396C1744.45 36.1201 1714.34 36.1117 1688.91 48.101C1663.58 60.044 1633.94 60.0912 1608.68 48.007C1583.57 35.9996 1554.41 35.8389 1529.17 47.5689L1527.24 48.47C1501.84 60.2732 1472.51 60.1527 1447.21 48.1412C1421.75 36.0528 1392.13 36.0511 1366.64 48.0689C1341.13 60.0974 1311.45 60.1196 1285.94 48.0911C1260.38 36.0411 1230.73 36.024 1205.17 48.074C1179.61 60.1241 1150 60.1241 1124.44 48.074C1098.88 36.024 1069.27 36.024 1043.71 48.074C1018.15 60.1241 988.544 60.1241 962.984 48.074C937.423 36.024 907.779 36.0409 882.219 48.091C856.695 60.1237 826.757 60.0197 801.201 48.0569C775.69 36.1157 745.652 36.0847 720.173 48.0957C694.771 60.0713 665.148 60.12 639.779 48.074C614.409 36.0281 584.787 36.0768 559.384 48.0524C533.906 60.0634 504.212 60.1935 478.701 48.2522L477.777 47.8196C452.378 35.9307 422.995 36.0117 397.662 48.0403C372.248 60.1076 342.644 60.0926 317.197 48.0958C291.682 36.0674 261.972 36.0285 236.457 48.057C210.897 60.107 181.253 60.1241 155.692 48.074C130.131 36.024 100.524 36.024 74.9628 48.074C51.3145 59.2225 24.1713 60.042 0 50.5597Z" fill="#F7F7FF"/>
<path fill-rule="evenodd" clip-rule="evenodd" d="M0 88.6177V50.0561C24.1276 59.7917 51.3879 58.9481 74.9628 47.4974C100.449 35.1185 130.206 35.1185 155.692 47.4974C181.178 59.8764 210.971 59.8588 236.457 47.4798C261.898 35.1231 291.755 35.1625 317.195 47.5192C342.57 59.844 372.322 59.8591 397.662 47.4626C422.921 35.1057 452.454 35.0228 477.782 47.2377L478.698 47.6798C504.137 59.9479 533.978 59.8148 559.383 47.4757C584.712 35.1727 614.484 35.1229 639.779 47.4974C665.074 59.8719 694.845 59.8221 720.175 47.5191C745.579 35.18 775.762 35.2116 801.201 47.4798C826.685 59.7701 856.769 59.8762 882.219 47.5148C907.705 35.1359 937.498 35.1185 962.984 47.4974C988.47 59.8764 1018.23 59.8764 1043.71 47.4974C1069.2 35.1185 1098.96 35.1185 1124.44 47.4974C1149.93 59.8764 1179.69 59.8764 1205.17 47.4974C1230.66 35.1185 1260.45 35.1361 1285.94 47.515C1311.38 59.8718 1341.2 59.8495 1366.64 47.4928C1392.06 35.1463 1421.83 35.1485 1447.21 47.5666C1472.44 59.9062 1501.92 60.0296 1527.24 47.9017L1529.16 46.9819C1554.33 34.9286 1583.64 35.0932 1608.68 47.4283C1633.87 59.8419 1663.65 59.7941 1688.92 47.5238C1714.27 35.2071 1744.52 35.216 1769.91 47.4619C1795.4 59.7522 1825.52 59.8762 1850.97 47.5148C1876.45 35.1359 1906.28 35.1361 1931.77 47.515C1957.21 59.8718 1987.07 59.8323 2012.51 47.4756C2037.88 35.1508 2067.64 35.1358 2092.97 47.5322C2118.23 59.8891 2147.77 59.972 2173.09 47.7571L2173.94 47.35C2199.42 35.0598 2229.2 35.1362 2254.65 47.4976C2276.72 58.2192 2302.06 59.6643 2325 51.7872V90.3015C2302.04 97.9764 2276.8 96.5718 2254.65 86.1322C2229.13 74.0995 2199.5 74.0251 2173.94 85.9878L2173.09 86.3865C2147.69 98.2754 2118.31 98.1945 2092.97 86.1658C2067.56 74.0985 2037.96 74.1135 2012.51 86.1103C1986.99 98.1387 1957.28 98.1776 1931.77 86.1492C1906.21 74.0991 1876.53 74.0989 1850.97 86.149C1825.44 98.1817 1795.47 98.0604 1769.91 86.0977C1744.45 74.1781 1714.34 74.1697 1688.91 86.159C1663.58 98.1021 1633.94 98.1492 1608.68 86.0651C1583.57 74.0576 1554.41 73.8969 1529.17 85.6269L1527.24 86.5281C1501.84 98.3313 1472.51 98.2107 1447.21 86.1992C1421.75 74.1108 1392.13 74.1091 1366.64 86.127C1341.13 98.1554 1311.45 98.1776 1285.94 86.1492C1260.38 74.0991 1230.73 74.082 1205.17 86.1321C1179.61 98.1821 1150 98.1821 1124.44 86.1321C1098.88 74.082 1069.27 74.082 1043.71 86.1321C1018.15 98.1821 988.544 98.1821 962.984 86.1321C937.423 74.082 907.779 74.0989 882.219 86.149C856.695 98.1817 826.757 98.0777 801.201 86.115C775.69 74.1737 745.652 74.1427 720.173 86.1538C694.771 98.1293 665.148 98.178 639.779 86.1321C614.409 74.0862 584.787 74.1348 559.384 86.1104C533.906 98.1215 504.212 98.2515 478.701 86.3103L477.777 85.8776C452.378 73.9888 422.995 74.0697 397.662 86.0983C372.248 98.1656 342.644 98.1507 317.197 86.1539C291.682 74.1254 261.972 74.0866 236.457 86.115C210.897 98.1651 181.253 98.1821 155.692 86.1321C130.131 74.082 100.524 74.082 74.9628 86.1321C51.3145 97.2805 24.1713 98.1001 0 88.6177Z" fill="#40B3DB"/>
<path fill-rule="evenodd" clip-rule="evenodd" d="M0 126.676V88.1142C24.1276 97.8498 51.3879 97.0061 74.9628 85.5555C100.449 73.1765 130.206 73.1765 155.692 85.5555C181.178 97.9344 210.971 97.9168 236.457 85.5379C261.898 73.1811 291.755 73.2205 317.195 85.5773C342.57 97.9021 372.322 97.9171 397.662 85.5207C422.921 73.1638 452.454 73.0808 477.782 85.2958L478.698 85.7378C504.137 98.006 533.978 97.8729 559.383 85.5338C584.712 73.2308 614.484 73.181 639.779 85.5555C665.074 97.93 694.845 97.8802 720.175 85.5772C745.579 73.238 775.762 73.2697 801.201 85.5378C826.685 97.8281 856.769 97.9343 882.219 85.5729C907.705 73.194 937.498 73.1765 962.984 85.5555C988.47 97.9344 1018.23 97.9344 1043.71 85.5555C1069.2 73.1765 1098.96 73.1765 1124.44 85.5555C1149.93 97.9344 1179.69 97.9344 1205.17 85.5555C1230.66 73.1765 1260.45 73.1941 1285.94 85.5731C1311.38 97.9298 1341.2 97.9076 1366.64 85.5508C1392.06 73.2044 1421.83 73.2065 1447.21 85.6247C1472.44 97.9642 1501.92 98.0877 1527.24 85.9598L1529.16 85.04C1554.33 72.9867 1583.64 73.1513 1608.68 85.4864C1633.87 97.8999 1663.65 97.8521 1688.92 85.5819C1714.27 73.2652 1744.52 73.2741 1769.91 85.52C1795.4 97.8103 1825.52 97.9343 1850.97 85.5729C1876.45 73.194 1906.28 73.1941 1931.77 85.5731C1957.21 97.9298 1987.07 97.8904 2012.51 85.5337C2037.88 73.2088 2067.64 73.1938 2092.97 85.5902C2118.23 97.9472 2147.77 98.0301 2173.09 85.8152L2173.94 85.4081C2199.42 73.1178 2229.2 73.1943 2254.65 85.5556C2276.72 96.2772 2302.06 97.7224 2325 89.8453V128.36C2302.04 136.034 2276.8 134.63 2254.65 124.19C2229.13 112.158 2199.5 112.083 2173.94 124.046L2173.09 124.445C2147.69 136.333 2118.31 136.253 2092.97 124.224C2067.56 112.157 2037.96 112.172 2012.51 124.168C1986.99 136.197 1957.28 136.236 1931.77 124.207C1906.21 112.157 1876.53 112.157 1850.97 124.207C1825.44 136.24 1795.47 136.118 1769.91 124.156C1744.45 112.236 1714.34 112.228 1688.91 124.217C1663.58 136.16 1633.94 136.207 1608.68 124.123C1583.57 112.116 1554.41 111.955 1529.17 123.685L1527.24 124.586C1501.84 136.389 1472.51 136.269 1447.21 124.257C1421.75 112.169 1392.13 112.167 1366.64 124.185C1341.13 136.213 1311.45 136.236 1285.94 124.207C1260.38 112.157 1230.73 112.14 1205.17 124.19C1179.61 136.24 1150 136.24 1124.44 124.19C1098.88 112.14 1069.27 112.14 1043.71 124.19C1018.15 136.24 988.544 136.24 962.984 124.19C937.423 112.14 907.779 112.157 882.219 124.207C856.695 136.24 826.757 136.136 801.201 124.173C775.69 112.232 745.652 112.201 720.173 124.212C694.771 136.187 665.148 136.236 639.779 124.19C614.409 112.144 584.787 112.193 559.384 124.168C533.906 136.18 504.212 136.31 478.701 124.368L477.777 123.936C452.378 112.047 422.995 112.128 397.662 124.156C372.248 136.224 342.644 136.209 317.197 124.212C291.682 112.183 261.972 112.145 236.457 124.173C210.897 136.223 181.253 136.24 155.692 124.19C130.131 112.14 100.524 112.14 74.9628 124.19C51.3145 135.339 24.1713 136.158 0 126.676Z" fill="#319FBC"/>
</svg>
